HIERARCHY
ROOT Hips
{
	OFFSET 0.000000 0.000000 0.000000
	CHANNELS 6 Xposition Yposition Zposition Yrotation Xrotation Zrotation
	JOINT Chest
	{
		OFFSET 0.000000 -0.009281 11.569106
		CHANNELS 3 Yrotation Xrotation Zrotation
		JOINT Chest2
		{
			OFFSET -0.000000 0.016865 9.269641
			CHANNELS 3 Yrotation Xrotation Zrotation
			JOINT Chest3
			{
				OFFSET -0.000000 0.000001 8.374491
				CHANNELS 3 Yrotation Xrotation Zrotation
				JOINT Chest4
				{
					OFFSET -0.000000 0.000001 8.374493
					CHANNELS 3 Yrotation Xrotation Zrotation
					JOINT Neck
					{
						OFFSET -0.000000 0.000002 12.152554
						CHANNELS 3 Yrotation Xrotation Zrotation
						JOINT Head
						{
							OFFSET -0.000000 0.040101 7.802319
							CHANNELS 3 Yrotation Xrotation Zrotation
							End Site
							{
								OFFSET -0.000000 0.020947 14.853096
							}
						}
					}
					JOINT RightCollar
					{
						OFFSET 2.894404 0.000001 6.791374
						CHANNELS 3 Yrotation Xrotation Zrotation
						JOINT RightShoulder
						{
							OFFSET 13.574684 0.000001 0.000000
							CHANNELS 3 Yrotation Xrotation Zrotation
							JOINT RightElbow
							{
								OFFSET 23.923903 0.000002 0.000000
								CHANNELS 3 Yrotation Xrotation Zrotation
								JOINT RightWrist
								{
									OFFSET 19.846718 0.012767 0.000000
									CHANNELS 3 Yrotation Xrotation Zrotation
									End Site
									{
										OFFSET 14.973145 0.000001 0.000000
									}
								}
							}
						}
					}
					JOINT LeftCollar
					{
						OFFSET -2.894404 0.000001 6.791374
						CHANNELS 3 Yrotation Xrotation Zrotation
						JOINT LeftShoulder
						{
							OFFSET -13.574684 -0.000001 0.000000
							CHANNELS 3 Yrotation Xrotation Zrotation
							JOINT LeftElbow
							{
								OFFSET -23.923903 -0.000002 0.000000
								CHANNELS 3 Yrotation Xrotation Zrotation
								JOINT LeftWrist
								{
									OFFSET -19.846718 0.012763 0.000000
									CHANNELS 3 Yrotation Xrotation Zrotation
									End Site
									{
										OFFSET -14.973145 -0.000001 0.000000
									}
								}
							}
						}
					}
				}
			}
		}
	}
	JOINT RightHip
	{
		OFFSET 9.469263 0.004643 0.045487
		CHANNELS 3 Yrotation Xrotation Zrotation
		JOINT RightKnee
		{
			OFFSET 0.000000 0.002661 -40.478676
			CHANNELS 3 Yrotation Xrotation Zrotation
			JOINT RightAnkle
			{
				OFFSET 0.000000 0.049106 -35.224068
				CHANNELS 3 Yrotation Xrotation Zrotation
				JOINT RightToe
				{
					OFFSET -0.000001 12.539529 -6.151390
					CHANNELS 3 Yrotation Xrotation Zrotation
					End Site
					{
						OFFSET -0.000001 5.044994 -1.291870
					}
				}
			}
		}
	}
	JOINT LeftHip
	{
		OFFSET -9.469263 0.004641 0.045487
		CHANNELS 3 Yrotation Xrotation Zrotation
		JOINT LeftKnee
		{
			OFFSET 0.000000 0.002661 -40.478676
			CHANNELS 3 Yrotation Xrotation Zrotation
			JOINT LeftAnkle
			{
				OFFSET 0.000000 0.049106 -35.224068
				CHANNELS 3 Yrotation Xrotation Zrotation
				JOINT LeftToe
				{
					OFFSET -0.000001 12.539529 -6.151390
					CHANNELS 3 Yrotation Xrotation Zrotation
					End Site
					{
						OFFSET -0.000001 5.044994 -1.291870
					}
				}
			}
		}
	}
}
MOTION
Frames: 9
Frame Time: 0.016667
-17.100359 165.243866 80.817650 6.876574 -0.735961 81.028351 -1.498014 -3.182120 3.584913 0.049646 -1.343466 1.233554 0.049646 -1.343466 1.233554 0.039945 -1.007505 0.925232 -0.808506 -16.109573 -3.448011 -2.749323 6.145807 -6.706718 10.585355 -5.426324 -1.555275 76.814568 -5.916290 29.863189 9.825021 -8.105566 33.922336 -26.501359 14.788215 31.885775 -6.790829 -1.130573 7.130545 -74.137141 21.588302 19.322422 15.384105 19.085586 14.372366 16.806869 4.852580 -15.551998 -7.956915 -7.753995 -6.292125 4.260255 -44.286083 -1.043558 13.274696 -11.003742 7.420506 -21.332122 52.510399 -8.551650 -11.965204 6.912828 4.610193 -2.719726 -3.815471 5.251124 6.572293 -12.803854 1.348023 -1.689961 2.424490 -0.325137 
-19.053127 164.850311 80.666664 6.846778 -1.457575 81.371343 -1.213956 -3.061709 3.507287 0.025490 -1.188766 1.210877 0.025490 -1.188766 1.210877 0.021473 -0.891528 0.908175 -1.522479 -16.410670 -3.110753 -3.936099 5.560013 -6.319676 10.390477 -5.003992 -1.568451 77.669134 -5.676591 28.670132 14.342692 -5.346209 34.113107 -25.856588 17.012633 33.633631 -6.701353 -1.411404 7.716247 -73.924763 21.928071 18.971168 15.158924 19.710439 14.254766 16.417924 4.225071 -14.322873 -9.429327 -4.860354 -6.964974 3.030136 -49.629131 -0.597879 15.615829 -15.342229 9.976491 -28.474225 55.298335 -14.530949 -12.805499 5.410480 4.025387 -3.525110 -3.476065 4.844821 7.382278 -10.483563 2.746502 -1.627799 0.942997 -0.699053 
-20.956348 164.640442 80.597435 6.662765 -1.993010 82.065194 -0.781626 -2.959797 3.028964 -0.049073 -1.083853 1.198461 -0.049073 -1.083853 1.198462 -0.034678 -0.812990 0.898733 -2.125096 -16.593584 -2.760106 -4.918137 5.202167 -5.871699 10.214569 -4.519573 -1.746320 78.589154 -5.221828 27.491677 18.532923 -3.301007 34.200219 -25.093820 19.063649 34.512399 -6.782816 -1.620364 7.793884 -73.656186 22.377214 18.358539 14.814021 20.445516 14.049580 15.312123 3.974680 -13.189553 -10.184290 -1.772660 -7.699183 1.029336 -54.451993 1.794439 17.504417 -17.608255 10.490943 -31.865233 53.873933 -17.598968 -13.527256 3.952080 2.962154 -4.288913 -3.160310 4.921207 7.854742 -8.740738 3.056475 -1.168731 0.248559 -0.283100 
-22.779728 164.302231 80.577950 6.340422 -2.653318 82.761047 -0.617821 -2.791796 2.565129 -0.132325 -1.032301 1.187045 -0.132325 -1.032301 1.187045 -0.097236 -0.774486 0.890036 -2.636088 -16.659178 -2.403472 -5.735573 5.069500 -5.386185 10.062065 -4.351100 -1.798766 79.573971 -4.330698 26.473245 22.223836 -1.824947 34.155693 -24.067413 21.215952 35.127106 -6.951723 -1.486850 7.732058 -73.302703 22.619353 17.589183 14.449451 21.063386 13.834266 13.692615 3.889724 -12.160580 -10.655288 1.505872 -7.758225 -1.717411 -58.379109 5.224522 18.526244 -17.696071 9.733716 -29.673590 48.216785 -16.321774 -14.364009 3.069274 1.742958 -4.766270 -3.317875 5.547423 8.407054 -7.241051 3.252742 -1.013638 -0.070371 -0.260194 
-24.372475 164.010071 80.554718 5.698969 -3.066138 83.480587 -0.395759 -2.377159 2.163415 -0.202031 -1.001575 1.172388 -0.202031 -1.001575 1.172389 -0.149598 -0.751572 0.878937 -3.061865 -16.665851 -2.049976 -6.399993 5.052817 -4.880072 10.045928 -4.094391 -1.779008 80.391928 -3.426081 25.223013 25.318895 -0.456041 33.958604 -22.813090 23.468071 35.797575 -7.205106 -1.169607 7.504620 -72.862163 22.742752 16.632209 14.043062 21.484719 13.561154 11.999010 3.786195 -11.321987 -10.479495 5.222539 -7.020850 -3.790081 -61.360828 7.717581 18.867407 -16.749340 8.263917 -25.286866 40.218199 -13.575656 -15.233998 2.626293 0.263512 -4.842294 -3.574018 6.518122 9.043477 -5.877022 3.390359 -1.019529 -0.245080 -0.351780 
-25.861830 163.634033 80.511238 5.129693 -3.482240 84.053995 -0.363012 -1.987984 1.997697 -0.243262 -0.942479 1.126396 -0.243262 -0.942479 1.126395 -0.180706 -0.707311 0.844402 -3.437536 -16.699370 -1.673721 -6.961988 4.992501 -4.312383 10.085128 -4.101272 -1.656411 80.842406 -2.647948 23.976667 27.836793 1.147231 33.642930 -21.554948 25.489691 36.312301 -7.430978 -1.160723 7.217160 -72.694660 22.818062 15.269019 13.511789 21.685538 13.124893 10.727240 3.616692 -10.782974 -10.028594 9.155244 -5.132976 -4.186179 -63.703132 8.358721 18.523427 -15.184339 6.117152 -20.769623 33.005373 -10.828168 -16.186167 2.179492 -0.964247 -4.694028 -3.721510 7.451642 9.707285 -4.750335 3.537962 -1.165437 -0.317681 -0.569704 
-27.298645 163.303818 80.454132 4.778624 -3.983713 84.641186 -0.528930 -1.760063 1.917014 -0.274619 -0.865675 1.036294 -0.274619 -0.865675 1.036293 -0.204494 -0.649724 0.776817 -3.754438 -16.765878 -1.273502 -7.404904 4.877695 -3.677475 10.155038 -4.018241 -1.519047 80.963013 -1.970152 22.415354 29.900444 2.952479 33.152219 -20.377567 26.991735 36.500309 -7.555319 -1.395557 6.959394 -72.907304 22.705429 13.591508 12.790229 21.715041 12.453533 10.146242 3.498046 -10.664547 -9.513869 13.015077 -2.406276 -3.335032 -65.472424 7.636361 17.572613 -13.117234 3.783369 -16.565208 27.900923 -8.308457 -17.121312 1.508238 -1.894265 -4.646869 -3.857764 7.918757 10.188059 -3.813609 3.573714 -1.147670 -0.218872 -0.454161 
-28.696081 163.018509 80.388870 4.522319 -4.506317 85.375295 -0.749981 -1.568626 1.777375 -0.301897 -0.782501 0.920845 -0.301896 -0.782501 0.920845 -0.225240 -0.587332 0.690237 -4.010369 -16.881292 -0.873662 -7.732698 4.676814 -3.018748 10.143637 -3.759958 -1.545371 80.992281 -1.356910 20.471576 31.441061 4.892602 32.385287 -18.825606 28.064020 36.514198 -7.763697 -1.584390 6.552194 -73.173900 22.436685 11.919629 11.889468 21.656838 11.592272 10.192862 3.418313 -11.049235 -8.996752 16.689880 0.584573 -1.891163 -66.406972 5.970402 16.072828 -11.053065 1.764123 -12.634242 25.046159 -5.961965 -17.909902 0.715554 -2.674696 -4.732689 -3.951508 7.664278 10.596711 -3.047351 4.001654 -1.084876 -0.098094 -0.298430 
-30.035492 162.792862 80.315727 4.274842 -4.909391 86.278410 -0.899600 -1.382754 1.559325 -0.333219 -0.701631 0.804482 -0.333219 -0.701630 0.804482 -0.248987 -0.526663 0.602971 -4.189273 -17.032351 -0.507967 -7.928738 4.412368 -2.394338 10.072311 -3.560987 -1.610114 81.092452 -0.588073 18.434139 32.234046 6.912663 31.289462 -17.115124 28.858003 36.040658 -8.126858 -1.729178 5.871903 -73.300668 22.136245 10.223890 10.814467 21.524554 10.575510 10.618255 3.241006 -11.903459 -8.316197 20.078446 3.485660 -0.463541 -66.273892 3.632486 14.090226 -9.498737 0.401262 -8.874755 23.887856 -3.776476 -18.592560 -0.116016 -3.129754 -4.703680 -4.083613 7.147227 10.997230 -2.276240 4.276915 -1.040950 0.007826 -0.211047 
